<?xml version="1.0" encoding="utf-8"?>
<!-- Generator: Adobe Illustrator 16.0.3, SVG Export Plug-In . SVG Version: 6.00 Build 0)  -->
<!DOCTYPE svg PUBLIC "-//W3C//DTD SVG 1.1//EN" "http://www.w3.org/Graphics/SVG/1.1/DTD/svg11.dtd">
<svg version="1.1" id="Layer_1" xmlns="http://www.w3.org/2000/svg" xmlns:xlink="http://www.w3.org/1999/xlink" x="0px" y="0px"
	 width="5.063px" height="6.25px" viewBox="0 0 5.063 6.25" enable-background="new 0 0 5.063 6.25" xml:space="preserve">
<g>
	<g>
		<g>
			<g>
				<path fill="#BF9900" d="M2.451,1.154c1.157,0,2.096,0.939,2.096,2.096c0,1.158-0.938,2.096-2.096,2.096
					c-1.156,0-2.096-0.938-2.096-2.096C0.356,2.093,1.295,1.154,2.451,1.154 M2.451,1.046c-1.216,0-2.202,0.988-2.202,2.203
					s0.986,2.203,2.202,2.203c1.215,0,2.202-0.988,2.202-2.202S3.666,1.046,2.451,1.046L2.451,1.046z"/>
			</g>
			<g>
				<path fill="#BF9900" d="M3.285,2.119c-0.556,0-1.111,0-1.666,0c-0.198,0-0.302,0.105-0.302,0.303c0,0.275,0,0.551,0,0.828
					c0,0.275,0,0.559,0,0.835c0,0.19,0.105,0.296,0.291,0.296c0.562,0,1.117,0,1.677,0c0.192,0,0.3-0.104,0.3-0.298
					c0-0.558,0-1.11,0-1.668C3.585,2.224,3.479,2.119,3.285,2.119z M3.102,2.375c0.226,0,0.226,0,0.226,0.225
					c0,0.219,0,0.219-0.222,0.219c-0.223,0-0.223,0-0.223-0.223C2.883,2.375,2.883,2.375,3.102,2.375z M2.453,2.81
					c0.235,0,0.438,0.204,0.436,0.439C2.887,3.492,2.686,3.691,2.445,3.688C2.207,3.684,2.006,3.481,2.012,3.246
					C2.018,3.007,2.217,2.81,2.453,2.81z M3.326,3.99C3.324,4.096,3.297,4.125,3.191,4.125c-0.247,0-0.494,0-0.74,0
					c-0.245,0-0.492,0-0.739,0c-0.104,0-0.133-0.029-0.133-0.135c0-0.273,0.001-0.551-0.004-0.826c0-0.078,0.021-0.095,0.094-0.093
					C1.771,3.08,1.773,3.075,1.762,3.176c-0.04,0.349,0.202,0.689,0.547,0.758C2.664,4,3.02,3.788,3.117,3.447
					C3.146,3.34,3.155,3.226,3.133,3.122C3.125,3.082,3.135,3.075,3.17,3.075C3.326,3.062,3.326,3.06,3.326,3.222
					C3.326,3.474,3.326,3.732,3.326,3.99z"/>
			</g>
		</g>
	</g>
</g>
</svg>
