<?xml version="1.0" encoding="utf-8"?>
<!-- Generator: Adobe Illustrator 24.1.1, SVG Export Plug-In . SVG Version: 6.00 Build 0)  -->
<svg version="1.1" id="Capa_1" xmlns="http://www.w3.org/2000/svg" xmlns:xlink="http://www.w3.org/1999/xlink" x="0px" y="0px"
	 viewBox="0 0 20 20" style="enable-background:new 0 0 20 20;" xml:space="preserve">
<style type="text/css">
	.st0{fill:#BF9900;}
</style>
<g>
	<path class="st0" d="M10,0C4.5,0,0,4.5,0,10s4.5,10,10,10s10-4.5,10-10l0,0C20,4.5,15.5,0,10,0z M10,19.4c-5.2,0-9.4-4.2-9.4-9.4
		S4.8,0.6,10,0.6s9.4,4.2,9.4,9.4C19.4,15.2,15.2,19.4,10,19.4z"/>
	<path class="st0" d="M15.1,5.6H4.9c-0.6,0-1.2,0.5-1.2,1.2v6.4c0,0.6,0.5,1.2,1.2,1.2h10.1c0.6,0,1.2-0.5,1.2-1.2V6.8
		C16.2,6.2,15.7,5.6,15.1,5.6L15.1,5.6z M15.6,13.4l-3.2-3l3.2-2.5C15.6,13.5,15.6,13.2,15.6,13.4z M10,11.5L4.4,7.1V6.8
		c0-0.3,0.2-0.6,0.6-0.6h10.1c0.3,0,0.6,0.2,0.6,0.6v0.4L10,11.5z M4.4,7.9l3.2,2.5l-3.2,3C4.4,13.2,4.4,13.5,4.4,7.9L4.4,7.9z
		 M4.8,13.8l3.2-3l1.8,1.4c0.1,0.1,0.3,0.1,0.4,0l1.8-1.4l3.2,3C15.1,13.8,4.9,13.8,4.8,13.8L4.8,13.8z"/>
</g>
</svg>
