<?xml version="1.0" encoding="utf-8"?>
<!-- Generator: Adobe Illustrator 24.1.1, SVG Export Plug-In . SVG Version: 6.00 Build 0)  -->
<svg version="1.1" id="Layer_1" xmlns="http://www.w3.org/2000/svg" xmlns:xlink="http://www.w3.org/1999/xlink" x="0px" y="0px"
	 viewBox="0 0 20 20" style="enable-background:new 0 0 20 20;" xml:space="preserve">
<style type="text/css">
	.st0{fill:#BF9900;}
</style>
<g>
	<g>
		<g>
			<g>
				<path class="st0" d="M10,0.5c5.3,0,9.5,4.3,9.5,9.5c0,5-3.8,9.1-8.7,9.5c-0.3,0-0.5,0-0.8,0c-0.7,0-1.4-0.1-2.1-0.2
					c-4.3-1-7.5-4.8-7.5-9.3C0.5,4.7,4.8,0.5,10,0.5 M10,0C4.5,0,0,4.5,0,10c0,4.6,3.3,8.8,7.8,9.8C8.5,19.9,9.2,20,10,20
					c0.3,0,0.6,0,0.9,0C16,19.5,20,15.2,20,10C20,4.5,15.5,0,10,0L10,0z"/>
			</g>
			<g>
				<path class="st0" d="M11.1,8c0.1-0.2,0.4-0.3,0.9-0.3c0.4,0,0.9,0.1,1.3,0.2l0.4-2c-0.8-0.3-1.5-0.3-2.4-0.3
					c-0.8,0-1.4,0.1-2,0.4c-0.5,0.3-0.9,0.6-1,1.1C8.1,7.5,8,8.2,8,9.1v0.8H6.4v2.3H8v7.2c0.7,0.1,1.3,0.2,2.1,0.2
					c0.3,0,0.5,0,0.8-0.1v-7.3H13V9.9h-2.1V9.2C10.8,8.5,10.9,8.2,11.1,8z"/>
			</g>
		</g>
	</g>
</g>
</svg>
