<?xml version="1.0" encoding="utf-8"?>
<!-- Generator: Adobe Illustrator 24.1.1, SVG Export Plug-In . SVG Version: 6.00 Build 0)  -->
<svg version="1.1" id="Layer_1" xmlns="http://www.w3.org/2000/svg" xmlns:xlink="http://www.w3.org/1999/xlink" x="0px" y="0px"
	 viewBox="0 0 20 20" style="enable-background:new 0 0 20 20;" xml:space="preserve">
<style type="text/css">
	.st0{fill:#BF9900;}
</style>
<g>
	<g>
		<g>
			<g>
				<path class="st0" d="M10,0.5c5.3,0,9.5,4.3,9.5,9.5c0,5.3-4.3,9.5-9.5,9.5S0.5,15.2,0.5,10S4.8,0.5,10,0.5 M10,0
					C4.5,0,0,4.5,0,10s4.5,10,10,10s10-4.5,10-10S15.5,0,10,0L10,0z"/>
			</g>
			<g>
				<path class="st0" d="M13.8,4.9c-2.5,0-5,0-7.6,0c-0.9,0-1.4,0.5-1.4,1.4c0,1.2,0,2.5,0,3.8c0,1.2,0,2.5,0,3.8
					c0,0.9,0.5,1.3,1.3,1.3c2.6,0,5.1,0,7.6,0c0.9,0,1.4-0.5,1.4-1.4c0-2.5,0-5,0-7.6C15.1,5.3,14.7,4.9,13.8,4.9z M13,6
					c1,0,1,0,1,1s0,1-1,1s-1,0-1-1S12,6,13,6z M10,8c1.1,0,2,0.9,2,2s-0.9,2-2,2s-2-0.9-2-2S8.9,8,10,8z M14,13.4
					c0,0.5-0.1,0.6-0.6,0.6c-1.1,0-2.2,0-3.4,0c-1.1,0-2.2,0-3.4,0C6.1,14,6,13.9,6,13.4c0-1.2,0-2.5,0-3.7c0-0.4,0.1-0.4,0.4-0.4
					c0.5,0,0.5,0,0.4,0.5c-0.2,1.6,0.9,3.1,2.5,3.4c1.6,0.3,3.2-0.7,3.7-2.2c0.1-0.5,0.2-1,0.1-1.5c0-0.2,0-0.2,0.2-0.2
					C14,9.2,14,9.2,14,10C14,11,14,12.2,14,13.4z"/>
			</g>
		</g>
	</g>
</g>
</svg>
