<?xml version="1.0" encoding="utf-8"?>
<!-- Generator: Adobe Illustrator 24.1.1, SVG Export Plug-In . SVG Version: 6.00 Build 0)  -->
<svg version="1.1" id="Layer_1" xmlns="http://www.w3.org/2000/svg" xmlns:xlink="http://www.w3.org/1999/xlink" x="0px" y="0px"
	 viewBox="0 0 20 20" style="enable-background:new 0 0 20 20;" xml:space="preserve">
<style type="text/css">
	.st0{fill:#BF9900;}
</style>
<g>
	<g>
		<g>
			<g>
				<path class="st0" d="M10,0.5c5.2,0,9.5,4.3,9.5,9.5s-4.3,9.5-9.5,9.5c-5.3,0-9.5-4.3-9.5-9.5C0.5,4.7,4.7,0.5,10,0.5 M10,0
					C4.5,0,0,4.5,0,10s4.5,10,10,10s10-4.5,10-10S15.5,0,10,0L10,0z"/>
			</g>
			<g>
				<path class="st0" d="M4.2,13.9C5.1,14,6,13.8,6.8,13.5c0.4-0.2,0.7-0.4,1-0.6c-0.4,0-0.7-0.1-1.1-0.3c-0.6-0.3-1-0.7-1.2-1.3
					c-0.1-0.1-0.1-0.1,0.1-0.1c0.4,0,0.7,0,0.9-0.1C6.3,11,6.1,11,5.9,10.9c-0.8-0.5-1.3-1.2-1.4-2.1c0-0.1,0-0.1,0.1-0.1
					c0.3,0.2,0.6,0.2,1,0.3C5.4,8.9,5.3,8.7,5.2,8.6C4.5,7.9,4.3,6.7,4.8,5.8c0.1-0.1,0.1-0.1,0.2,0C6.2,7.1,7.6,8,9.4,8.2
					c0.2,0,0.4,0,0.6,0.1c0.1,0,0.1,0,0.1-0.1c-0.2-1,0.3-2.1,1.2-2.6c1-0.6,2.2-0.4,2.9,0.4c0.1,0.1,0.2,0.1,0.3,0.1
					C15,6,15.4,5.8,15.8,5.6c0,0,0.1,0,0.1-0.1c-0.2,0.6-0.5,1-1,1.4c0.5,0,0.9-0.2,1.4-0.3c0,0.1,0,0.1-0.1,0.1
					c-0.3,0.4-0.6,0.8-1,1.1c-0.1,0.1-0.1,0.1-0.1,0.2c0,1.8-0.6,3.5-1.7,4.9c-1.1,1.3-2.5,2.1-4.2,2.3C7.5,15.1,5.8,14.9,4.2,13.9
					C4.3,13.9,4.3,13.9,4.2,13.9z"/>
			</g>
		</g>
	</g>
</g>
</svg>
