<?xml version="1.0" encoding="utf-8"?>
<!-- Generator: Adobe Illustrator 16.0.3, SVG Export Plug-In . SVG Version: 6.00 Build 0)  -->
<!DOCTYPE svg PUBLIC "-//W3C//DTD SVG 1.1//EN" "http://www.w3.org/Graphics/SVG/1.1/DTD/svg11.dtd">
<svg version="1.1" id="Capa_1" xmlns="http://www.w3.org/2000/svg" xmlns:xlink="http://www.w3.org/1999/xlink" x="0px" y="0px"
	 width="422px" height="436px" viewBox="0 0 422 436" enable-background="new 0 0 422 436" xml:space="preserve">
<g>
	<linearGradient id="SVGID_1_" gradientUnits="userSpaceOnUse" x1="-78.5029" y1="316.3037" x2="501.7887" y2="896.5953">
		<stop  offset="0.133" style="stop-color:#FEFCDD"/>
		<stop  offset="0.2365" style="stop-color:#F8F046"/>
	</linearGradient>
	<path fill-rule="evenodd" clip-rule="evenodd" fill="url(#SVGID_1_)" d="M-368.52,606.32c386.72,0,773.44,0,1160.16,0
		c-0.104,0.147,0.243,0.5-0.239,0.484c-0.64-0.021-1.28-0.005-1.92-0.005c-385.28,0-770.561,0.001-1155.84-0.029
		C-367.063,606.771-367.987,607.324-368.52,606.32z"/>
	<linearGradient id="SVGID_2_" gradientUnits="userSpaceOnUse" x1="14.7783" y1="152.7065" x2="177.6988" y2="315.627">
		<stop  offset="0.0099" style="stop-color:#FEFCDD"/>
		<stop  offset="0.0739" style="stop-color:#FDFBCB"/>
		<stop  offset="0.3448" style="stop-color:#F8F046"/>
	</linearGradient>
	<path fill-rule="evenodd" clip-rule="evenodd" fill="url(#SVGID_2_)" d="M179.474,269.144c-0.128,0.763-0.647,1.37-1.015,2.034
		c-12.762,23.027-27.236,45.008-41.23,67.28c-7.104,11.307-14.014,22.739-21.538,33.777c-7.086,10.396-14.729,20.344-23.767,29.148
		c-11.851,11.545-25.339,20.491-41.146,25.683c-6.415,2.107-12.992,3.368-19.797,3.103c-2.493-0.097-4.928-0.514-7.313-1.214
		c-6.584-1.935-11.322-6.039-14.385-12.171c-3.648-7.304-4.646-14.822-1.42-22.463c3.475-8.229,9.782-13.115,18.687-14.29
		c8.616-1.137,15.564,6.712,13.653,15.209c-0.669,2.976-1.703,5.823-2.874,8.632c-0.521,1.251-1.015,2.525-1.374,3.83
		c-1.843,6.712,2.092,12.3,9.021,12.833c4.48,0.345,8.761-0.655,12.897-2.222c7.383-2.797,14.06-6.874,20.364-11.587
		c10.601-7.926,19.494-17.503,27.257-28.177c7.157-9.841,13.494-20.218,19.97-30.503c11.887-18.879,23.717-37.794,35.562-56.699
		c0.417-0.666,0.98-1.268,1.109-2.085c-0.33-0.381-0.741-0.249-1.096-0.167c-12.883,2.997-25.933,3.721-39.091,2.795
		c-18.943-1.333-36.846-6.186-53.196-16.082c-18.4-11.139-31.075-27.054-38.975-46.933c-6.418-16.151-8.681-32.893-6.711-50.119
		c4.932-43.133,33.202-78.183,74.307-92.38c14.646-5.059,29.713-6.9,45.129-5.526c12.672,1.129,24.813,4.524,36.632,9.155
		c4.611,1.807,9.241,3.543,14.055,4.791c7.38,1.913,13.569-4.681,14.228-9.655c0.063-0.476,0.073-0.959,0.154-1.431
		c0.333-1.944,0.977-2.709,2.893-2.977c4.754-0.663,3.859-0.606,3.864,3.121c0.029,21.198,0.015,42.396,0.015,63.594
		c0,0.24,0.022,0.483-0.005,0.72c-0.09,0.769,0.375,1.838-0.374,2.236c-0.881,0.467-1.859-0.156-2.678-0.651
		c-1.466-0.887-2.535-2.185-3.476-3.593c-1.695-2.536-2.976-5.292-4.262-8.045c-2.096-4.491-4.136-9.009-6.559-13.34
		c-10.013-17.898-25.637-27.473-45.6-30.162c-30.781-4.145-55.95,15.093-65.564,38.206c-4.799,11.538-7.854,23.469-9.011,35.896
		c-1.947,20.917-0.267,41.523,5.459,61.757c2.34,8.271,5.613,16.141,10.396,23.345c8.841,13.317,21.236,20.954,36.978,23.259
		c17.016,2.492,33.306,0.344,48.646-7.741c0.277-0.146,0.583-0.243,0.882-0.345C179.226,268.974,179.308,269.054,179.474,269.144z"
		/>
	<linearGradient id="SVGID_3_" gradientUnits="userSpaceOnUse" x1="238.2451" y1="132.9185" x2="402.1475" y2="296.8208">
		<stop  offset="0" style="stop-color:#FEFCDD"/>
		<stop  offset="0.0837" style="stop-color:#F8F046"/>
	</linearGradient>
	<path fill-rule="evenodd" clip-rule="evenodd" fill="url(#SVGID_3_)" d="M410.141,18.127c-4.325-4.648-9.98-6.494-16.122-6.994
		c-5.555-0.452-11.008,0.375-16.387,1.728c-11.478,2.889-21.821,8.215-31.464,14.929c-14.557,10.136-26.304,23.03-36.375,37.541
		c-4.385,6.318-7.943,13.134-12.013,19.638c-11.916,19.05-24.063,37.956-35.643,57.215c-13.847,23.027-26.899,46.512-40.23,69.836
		c-2.42,4.233-5.077,8.359-7.139,12.762c-4.676,9.988-9.016,20.134-13.553,30.188c-6.608,14.645-12.875,29.443-19.844,43.924
		c-2.879,5.983-6.037,11.821-10.041,17.157c-3.473,4.628-7.906,7.862-13.521,9.419c-1.152,0.319-2.292,0.711-3.396,1.169
		c-1.583,0.658-2.527,1.911-2.959,3.553c-0.697,2.644-0.391,3.045,2.329,3.046c20.719,0.002,41.438,0.001,62.157,0
		c0.56,0,1.12,0.004,1.679-0.024c0.415-0.021,0.73-0.166,0.854-0.65c0.486-1.899-1.024-4.864-2.904-5.551
		c-1.059-0.386-2.174-0.497-3.305-0.496c-2,0.002-4.006,0.063-5.997-0.074c-8.925-0.612-14.65-7.072-14.261-15.963
		c0.155-3.558,1.081-6.942,2.208-10.278c0.664-1.967,1.437-3.901,2.254-5.811c2.392-5.584,4.883-11.126,7.214-16.735
		c0.639-1.537,1.405-2.433,3.151-2.102c0.154,0.029,0.319,0.004,0.479,0.004c21.918,0,43.837,0,65.756,0
		c0.48,0,0.966,0.05,1.438-0.009c1.045-0.128,1.587,0.348,1.985,1.289c4.637,10.97,9.327,21.916,13.944,32.894
		c0.93,2.212,1.485,4.553,1.675,6.968c0.29,3.719-1.103,6.491-4.378,8.381c-4.006,2.313-8.304,2.674-12.769,2.19
		c-0.873-0.094-1.752-0.228-2.626-0.21c-2.395,0.047-3.517,1.04-3.921,3.36c-0.467,2.675-0.353,2.816,2.415,2.816
		c15.439,0.003,30.878,0.002,46.317,0.002c15.359,0,30.719,0,46.078-0.001c0.64,0,1.279-0.021,1.919-0.006
		c0.805,0.019,1.103-0.353,1.134-1.156c0.13-3.413-1.178-5.162-4.58-5.49c-4.941-0.476-8.713-2.896-11.839-6.563
		c-1.77-2.076-3.269-4.342-4.674-6.674c-3.678-6.109-6.701-12.548-9.57-19.063c-22.096-50.185-44.181-100.374-66.323-150.537
		c-0.701-1.589-0.599-2.707,0.303-4.151c9.263-14.861,18.401-29.801,27.685-44.65c6.697-10.712,13.291-21.495,20.651-31.778
		c8.637-12.068,18.711-22.709,31.035-31.079c6.232-4.232,12.714-8.021,20.016-10.181c3.248-0.961,6.535-1.542,9.935-1.209
		c5.257,0.514,8.813,3.781,9.32,8.707c0.26,2.531-0.573,4.897-1.58,7.181c-1.423,3.227-2.579,6.532-3.297,9.997
		c-1.427,6.886,3.883,15.342,13.156,14.704c6.427-0.442,11.822-3.267,15.851-8.394C421.066,41.828,418.355,26.957,410.141,18.127z
		 M270.852,264.434c-20.456,0-40.502,0-60.556,0c0.236-1.801,29.122-66.877,30.661-69.011
		C250.918,218.418,260.837,241.315,270.852,264.434z"/>
</g>
</svg>
