<?xml version="1.0" encoding="utf-8"?>
<!-- Generator: Adobe Illustrator 16.0.3, SVG Export Plug-In . SVG Version: 6.00 Build 0)  -->
<!DOCTYPE svg PUBLIC "-//W3C//DTD SVG 1.1//EN" "http://www.w3.org/Graphics/SVG/1.1/DTD/svg11.dtd">
<svg version="1.1" id="Capa_1" xmlns="http://www.w3.org/2000/svg" xmlns:xlink="http://www.w3.org/1999/xlink" x="0px" y="0px"
	 width="110.151px" height="94.595px" viewBox="0 0 110.151 94.595" enable-background="new 0 0 110.151 94.595"
	 xml:space="preserve">
<g>
	<path fill-rule="evenodd" clip-rule="evenodd" fill="#183153" d="M55.047,78.921c15.354,0,30.709-0.002,46.063,0
		c5.643,0.001,8.996,2.847,9.047,7.667c0.052,4.784-3.374,7.858-8.959,7.862c-30.834,0.022-61.668,0.022-92.501-0.001
		c-5.159-0.003-8.817-3.528-8.698-8.209c0.112-4.425,3.479-7.311,8.609-7.314C24.088,78.914,39.567,78.921,55.047,78.921z"/>
	<path fill-rule="evenodd" clip-rule="evenodd" fill="#183153" d="M54.677,15.728c-15.123,0-30.245-0.033-45.367,0.021
		c-4.005,0.015-7.085-1.293-8.691-5.159c-1.766-4.248,0.434-8.92,4.893-10.063c1.784-0.457,3.708-0.502,5.568-0.504
		C40.449-0.007,69.819,0,99.19,0.003c7.349,0.001,10.937,2.565,10.965,7.814c0.028,5.313-3.532,7.909-10.861,7.909
		C84.422,15.729,69.549,15.728,54.677,15.728z"/>
	<path fill-rule="evenodd" clip-rule="evenodd" fill="#183153" d="M54.66,54.826c-15.377,0-30.753,0.007-46.13-0.003
		C3.119,54.82-0.095,51.908,0,47.149c0.092-4.601,3.294-7.551,8.396-7.555c31.128-0.021,62.256-0.023,93.385,0
		c5.151,0.004,8.273,2.905,8.369,7.575c0.097,4.696-3.184,7.645-8.608,7.651C85.914,54.837,70.287,54.826,54.66,54.826z"/>
</g>
</svg>
