<?xml version="1.0" encoding="utf-8"?>
<!-- Generator: Adobe Illustrator 16.0.3, SVG Export Plug-In . SVG Version: 6.00 Build 0)  -->
<!DOCTYPE svg PUBLIC "-//W3C//DTD SVG 1.1//EN" "http://www.w3.org/Graphics/SVG/1.1/DTD/svg11.dtd">
<svg version="1.1" id="Capa_1" xmlns="http://www.w3.org/2000/svg" xmlns:xlink="http://www.w3.org/1999/xlink" x="0px" y="0px"
	 width="110.159px" height="94.503px" viewBox="0 0 110.159 94.503" enable-background="new 0 0 110.159 94.503"
	 xml:space="preserve">
<g>
	<path fill-rule="evenodd" clip-rule="evenodd" fill="#183153" d="M55.038,15.728c-15.248,0-30.495-0.032-45.742,0.022
		c-4.007,0.014-7.081-1.306-8.68-5.175C-1.142,6.326,1.063,1.661,5.528,0.522c1.784-0.456,3.708-0.499,5.569-0.5
		C40.467-0.007,69.838,0,99.208,0.003c7.338,0,10.935,2.58,10.951,7.831c0.017,5.308-3.543,7.894-10.878,7.895
		C84.534,15.729,69.786,15.728,55.038,15.728z"/>
	<path fill-rule="evenodd" clip-rule="evenodd" fill="#183153" d="M39.208,54.827c-10.367,0-20.734,0.017-31.1-0.008
		c-4.725-0.011-8.113-3.341-8.101-7.866c0.011-4.141,3.267-7.336,7.811-7.346c20.983-0.047,41.967-0.054,62.95,0.004
		c4.876,0.014,7.798,3.053,7.784,7.687c-0.014,4.665-2.897,7.492-7.869,7.515C60.191,54.859,49.699,54.827,39.208,54.827z"/>
	<path fill-rule="evenodd" clip-rule="evenodd" fill="#183153" d="M23.446,78.917c5.236-0.002,10.473-0.041,15.708,0.01
		c4.687,0.044,7.894,3.129,7.997,7.571c0.103,4.392-3.096,7.878-7.692,7.927c-10.471,0.111-20.945,0.094-31.417,0.008
		C3.423,94.396-0.042,90.767,0,86.349c0.041-4.307,3.368-7.387,8.11-7.422C13.223,78.889,18.334,78.918,23.446,78.917z"/>
</g>
</svg>
