<?xml version="1.0" encoding="utf-8"?>
<!-- Generator: Adobe Illustrator 16.0.3, SVG Export Plug-In . SVG Version: 6.00 Build 0)  -->
<!DOCTYPE svg PUBLIC "-//W3C//DTD SVG 1.1//EN" "http://www.w3.org/Graphics/SVG/1.1/DTD/svg11.dtd">
<svg version="1.1" id="Layer_1" xmlns="http://www.w3.org/2000/svg" xmlns:xlink="http://www.w3.org/1999/xlink" x="0px" y="0px"
	 width="5.521px" height="6.25px" viewBox="0 0 5.521 6.25" enable-background="new 0 0 5.521 6.25" xml:space="preserve">
<g>
	<g>
		<g>
			<g>
				<path fill="#BF9900" d="M2.979,1.143c1.157,0,2.092,0.936,2.092,2.094c0,1.098-0.843,2-1.914,2.085
					C3.099,5.333,3.039,5.333,2.979,5.333c-0.157,0-0.311-0.017-0.454-0.049C1.584,5.074,0.88,4.234,0.88,3.236
					C0.881,2.079,1.823,1.143,2.979,1.143 M2.979,1.036c-1.216,0-2.206,0.988-2.206,2.201c0,1.021,0.727,1.928,1.728,2.154
					C2.652,5.423,2.814,5.439,2.98,5.439c0.063,0,0.132,0,0.195-0.01C4.295,5.339,5.18,4.376,5.18,3.237
					C5.18,2.024,4.192,1.036,2.979,1.036L2.979,1.036z"/>
			</g>
			<g>
				<path fill="#BF9900" d="M3.217,2.797c0.033-0.038,0.099-0.065,0.19-0.065c0.086,0,0.189,0.013,0.286,0.04l0.082-0.439
					c-0.167-0.059-0.34-0.075-0.521-0.075c-0.179,0-0.318,0.027-0.433,0.092C2.709,2.413,2.633,2.484,2.59,2.587
					C2.547,2.68,2.525,2.835,2.525,3.031v0.173H2.179v0.502h0.347v1.579C2.672,5.318,2.823,5.334,2.98,5.334
					c0.059,0,0.119,0,0.178-0.012V3.706h0.459V3.204H3.158V3.042C3.158,2.917,3.174,2.841,3.217,2.797z"/>
			</g>
		</g>
	</g>
</g>
</svg>
