<?xml version="1.0" encoding="utf-8"?>
<!-- Generator: Adobe Illustrator 16.0.3, SVG Export Plug-In . SVG Version: 6.00 Build 0)  -->
<!DOCTYPE svg PUBLIC "-//W3C//DTD SVG 1.1//EN" "http://www.w3.org/Graphics/SVG/1.1/DTD/svg11.dtd">
<svg version="1.1" id="Layer_1" xmlns="http://www.w3.org/2000/svg" xmlns:xlink="http://www.w3.org/1999/xlink" x="0px" y="0px"
	 width="4.938px" height="6.25px" viewBox="0 0 4.938 6.25" enable-background="new 0 0 4.938 6.25" xml:space="preserve">
<g>
	<g>
		<g>
			<g>
				<path fill="#BF9900" d="M2.511,1.167c1.156,0,2.095,0.938,2.095,2.096c0,1.156-0.938,2.096-2.095,2.096
					c-1.158,0-2.096-0.939-2.096-2.096C0.415,2.104,1.353,1.167,2.511,1.167 M2.511,1.059c-1.215,0-2.204,0.988-2.204,2.203
					c0,1.214,0.989,2.203,2.204,2.203c1.214,0,2.202-0.988,2.202-2.203C4.713,2.047,3.725,1.059,2.511,1.059L2.511,1.059z"/>
			</g>
			<g>
				<path fill="#BF9900" d="M1.242,4.116C1.441,4.129,1.635,4.1,1.816,4.018c0.082-0.037,0.156-0.08,0.23-0.14
					C1.96,3.876,1.881,3.855,1.809,3.818c-0.123-0.063-0.21-0.16-0.263-0.293c-0.012-0.029-0.012-0.029,0.02-0.027
					c0.088,0.009,0.152,0.007,0.202-0.013C1.72,3.468,1.675,3.46,1.638,3.435C1.454,3.333,1.357,3.176,1.34,2.965
					C1.339,2.941,1.346,2.938,1.368,2.949C1.433,2.985,1.503,3,1.584,3.007C1.549,2.976,1.519,2.951,1.491,2.923
					C1.339,2.759,1.303,2.5,1.404,2.299c0.016-0.027,0.021-0.027,0.037-0.006C1.698,2.589,2.018,2.768,2.402,2.83
					c0.039,0.008,0.082,0.008,0.122,0.017c0.027,0.004,0.03-0.009,0.026-0.029C2.51,2.587,2.618,2.357,2.823,2.242
					c0.211-0.122,0.48-0.084,0.648,0.08c0.021,0.017,0.038,0.021,0.063,0.015c0.104-0.023,0.198-0.062,0.289-0.114
					c0.01-0.002,0.016-0.006,0.023-0.015C3.809,2.337,3.73,2.434,3.615,2.511c0.106-0.01,0.202-0.042,0.299-0.077
					c0.002,0.013-0.01,0.021-0.016,0.031C3.834,2.553,3.759,2.631,3.67,2.699C3.653,2.711,3.649,2.722,3.649,2.743
					c0.007,0.404-0.122,0.764-0.38,1.075C3.027,4.104,2.718,4.275,2.35,4.334C1.959,4.395,1.592,4.331,1.254,4.122
					C1.25,4.118,1.245,4.116,1.242,4.116z"/>
			</g>
		</g>
	</g>
</g>
</svg>
