<?xml version="1.0" encoding="utf-8"?>
<!-- Generator: Adobe Illustrator 16.0.3, SVG Export Plug-In . SVG Version: 6.00 Build 0)  -->
<!DOCTYPE svg PUBLIC "-//W3C//DTD SVG 1.1//EN" "http://www.w3.org/Graphics/SVG/1.1/DTD/svg11.dtd">
<svg version="1.1" id="Layer_1" xmlns="http://www.w3.org/2000/svg" xmlns:xlink="http://www.w3.org/1999/xlink" x="0px" y="0px"
	 width="4.969px" height="5.313px" viewBox="0 0 4.969 5.313" enable-background="new 0 0 4.969 5.313" xml:space="preserve">
<g>
	<g>
		<g>
			<g>
				<path fill="#BF9900" d="M2.421,0.691c1.157,0,2.096,0.938,2.096,2.098c0,1.156-0.938,2.096-2.096,2.096S0.327,3.945,0.327,2.787
					C0.327,1.629,1.264,0.691,2.421,0.691 M2.421,0.584c-1.214,0-2.203,0.986-2.203,2.203c0,1.215,0.989,2.201,2.203,2.201
					c1.215,0,2.204-0.986,2.204-2.201C4.625,1.572,3.637,0.584,2.421,0.584L2.421,0.584z"/>
			</g>
			<g>
				<path fill="#BF9900" d="M3.664,2.486C3.524,1.906,3.024,1.51,2.421,1.504c-0.08,0.004-0.166,0.01-0.244,0.022
					C1.332,1.698,0.896,2.632,1.305,3.384C1.32,3.405,1.32,3.424,1.317,3.447C1.257,3.643,1.203,3.843,1.15,4.04
					C1.141,4.074,1.141,4.074,1.174,4.065c0.207-0.057,0.411-0.107,0.617-0.16c0.018-0.006,0.029-0.006,0.046,0.004
					C2.102,4.042,2.381,4.08,2.674,4.025C3.373,3.891,3.831,3.178,3.664,2.486z M2.601,3.821C2.54,3.832,2.482,3.838,2.454,3.834
					c-0.227,0-0.406-0.051-0.575-0.147c-0.024-0.015-0.042-0.019-0.065-0.01C1.699,3.704,1.586,3.735,1.472,3.765
					C1.45,3.771,1.446,3.767,1.452,3.744C1.481,3.639,1.511,3.53,1.544,3.422C1.551,3.393,1.549,3.369,1.53,3.347
					C1.299,2.97,1.31,2.508,1.568,2.158c0.271-0.359,0.641-0.511,1.078-0.414c0.435,0.091,0.71,0.372,0.811,0.804
					C3.595,3.139,3.196,3.725,2.601,3.821z"/>
				<path fill="#BF9900" d="M2.755,3.384C2.71,3.389,2.666,3.38,2.623,3.367C2.331,3.281,2.11,3.103,1.933,2.86
					c-0.064-0.089-0.129-0.186-0.146-0.3C1.758,2.428,1.8,2.31,1.9,2.22c0.033-0.032,0.13-0.047,0.17-0.025
					C2.083,2.206,2.09,2.216,2.098,2.228c0.036,0.091,0.075,0.175,0.111,0.261C2.214,2.51,2.213,2.525,2.204,2.545
					c-0.021,0.04-0.051,0.069-0.078,0.104C2.102,2.669,2.102,2.692,2.118,2.718c0.104,0.175,0.244,0.301,0.435,0.374
					C2.58,3.103,2.601,3.099,2.618,3.077c0.031-0.038,0.063-0.08,0.095-0.12C2.732,2.933,2.757,2.928,2.785,2.94
					c0.063,0.027,0.124,0.059,0.184,0.084C2.986,3.034,2.997,3.04,3.012,3.045C3.075,3.076,3.075,3.08,3.068,3.148
					c-0.008,0.133-0.108,0.2-0.227,0.233C2.808,3.389,2.783,3.389,2.755,3.384z"/>
			</g>
		</g>
	</g>
</g>
</svg>
